<svg height="501pt" viewBox="0 -7 501.962 501" width="501pt" xmlns="http://www.w3.org/2000/svg"><path d="m487.953125 254.765625h-473.945313c-5.523437 0-10-4.476563-10-10v-230.285156c0-5.519531 4.476563-10 10-10h473.945313c5.519531 0 10 4.480469 10 10v230.285156c0 5.523437-4.476563 10-10 10zm0 0" fill="#40c4df"/><g fill="#d8d6d7"><path d="m71.898438 92v17.140625c0 5.539063-4.476563 10-10 10h-17.136719c-5.523438 0-10-4.460937-10-10v-17.140625c0-5.519531 4.476562-10 10-10h17.136719c5.523437 0 10 4.480469 10 10zm0 0"/><path d="m128.378906 92v17.140625c0 5.539063-4.480468 10-10 10h-17.160156c-5.519531 0-10-4.460937-10-10v-17.140625c0-5.519531 4.480469-10 10-10h17.160156c5.519532 0 10 4.480469 10 10zm0 0"/><path d="m184.839844 92v17.140625c0 5.539063-4.480469 10-10 10h-17.140625c-5.519531 0-10-4.460937-10-10v-17.140625c0-5.519531 4.480469-10 10-10h17.140625c5.519531 0 10 4.480469 10 10zm0 0"/><path d="m241.320312 92v17.140625c0 5.539063-4.480468 10-10 10h-17.140624c-5.539063 0-10-4.460937-10-10v-17.140625c0-5.519531 4.460937-10 10-10h17.140624c5.519532 0 10 4.480469 10 10zm0 0"/><path d="m71.898438 33.601562v17.140626c0 5.539062-4.476563 10-10 10h-17.136719c-5.523438 0-10-4.460938-10-10v-17.140626c0-5.519531 4.476562-10 10-10h17.136719c5.523437 0 10 4.480469 10 10zm0 0"/><path d="m128.378906 33.601562v17.140626c0 5.539062-4.480468 10-10 10h-17.160156c-5.519531 0-10-4.460938-10-10v-17.140626c0-5.519531 4.480469-10 10-10h17.160156c5.519532 0 10 4.480469 10 10zm0 0"/><path d="m184.839844 33.601562v17.140626c0 5.539062-4.480469 10-10 10h-17.140625c-5.519531 0-10-4.460938-10-10v-17.140626c0-5.519531 4.480469-10 10-10h17.140625c5.519531 0 10 4.480469 10 10zm0 0"/><path d="m241.320312 33.601562v17.140626c0 5.539062-4.480468 10-10 10h-17.140624c-5.539063 0-10-4.460938-10-10v-17.140626c0-5.519531 4.460937-10 10-10h17.140624c5.519532 0 10 4.480469 10 10zm0 0"/><path d="m297.78125 33.601562v17.140626c0 5.539062-4.460938 10-10 10h-17.140625c-5.519531 0-10-4.460938-10-10v-17.140626c0-5.519531 4.480469-10 10-10h17.140625c5.539062 0 10 4.480469 10 10zm0 0"/><path d="m354.261719 33.601562v17.140626c0 5.539062-4.480469 10-10 10h-17.140625c-5.519532 0-10-4.460938-10-10v-17.140626c0-5.519531 4.480468-10 10-10h17.140625c5.519531 0 10 4.480469 10 10zm0 0"/><path d="m410.738281 33.601562v17.140626c0 5.539062-4.476562 10-10 10h-17.160156c-5.519531 0-10-4.460938-10-10v-17.140626c0-5.519531 4.480469-10 10-10h17.160156c5.523438 0 10 4.480469 10 10zm0 0"/><path d="m410.738281 33.601562v17.140626c0 5.539062-4.476562 10-10 10h-17.160156c-5.519531 0-10-4.460938-10-10v-17.140626c0-5.519531 4.480469-10 10-10h17.160156c5.523438 0 10 4.480469 10 10zm0 0"/><path d="m467.199219 33.601562v17.140626c0 5.539062-4.480469 10-10 10h-17.140625c-5.519532 0-10-4.460938-10-10v-17.140626c0-5.519531 4.480468-10 10-10h17.140625c5.519531 0 10 4.480469 10 10zm0 0"/><path d="m71.898438 150.242188v17.160156c0 5.519531-4.476563 10-10 10h-17.136719c-5.523438 0-10-4.480469-10-10v-17.160156c0-5.519532 4.476562-10 10-10h17.136719c5.523437 0 10 4.480468 10 10zm0 0"/><path d="m128.378906 150.242188v17.160156c0 5.519531-4.480468 10-10 10h-17.160156c-5.519531 0-10-4.480469-10-10v-17.160156c0-5.519532 4.480469-10 10-10h17.160156c5.519532 0 10 4.480468 10 10zm0 0"/><path d="m184.839844 150.242188v17.160156c0 5.519531-4.480469 10-10 10h-17.140625c-5.519531 0-10-4.480469-10-10v-17.160156c0-5.519532 4.480469-10 10-10h17.140625c5.519531 0 10 4.480468 10 10zm0 0"/><path d="m297.78125 92v75.402344c0 5.519531-4.460938 10-10 10h-73.601562c-5.539063 0-10-4.480469-10-10v-17.160156c0-5.519532 4.460937-10 10-10h36.460937c5.519531 0 10-4.460938 10-10v-38.242188c0-5.519531 4.480469-10 10-10h17.140625c5.539062 0 10 4.480469 10 10zm0 0"/><path d="m354.261719 150.242188v17.160156c0 5.519531-4.480469 10-10 10h-17.140625c-5.519532 0-10-4.480469-10-10v-17.160156c0-5.519532 4.480468-10 10-10h17.140625c5.519531 0 10 4.480468 10 10zm0 0"/><path d="m71.898438 208.5v17.140625c0 5.519531-4.476563 10-10 10h-17.136719c-5.523438 0-10-4.480469-10-10v-17.140625c0-5.519531 4.476562-10 10-10h17.136719c5.523437 0 10 4.480469 10 10zm0 0"/><path d="m241.320312 208.5v17.140625c0 5.519531-4.480468 10-10 10h-130.101562c-5.519531 0-10-4.480469-10-10v-17.140625c0-5.519531 4.480469-10 10-10h130.101562c5.519532 0 10 4.480469 10 10zm0 0"/><path d="m297.78125 208.5v17.140625c0 5.519531-4.460938 10-10 10h-17.140625c-5.519531 0-10-4.480469-10-10v-17.140625c0-5.519531 4.480469-10 10-10h17.140625c5.539062 0 10 4.480469 10 10zm0 0"/><path d="m410.738281 92v17.140625c0 5.539063-4.476562 10-10 10h-73.617187c-5.519532 0-10-4.460937-10-10v-17.140625c0-5.519531 4.480468-10 10-10h73.617187c5.523438 0 10 4.480469 10 10zm0 0"/><path d="m410.738281 150.242188v17.160156c0 5.519531-4.476562 10-10 10h-17.160156c-5.519531 0-10-4.480469-10-10v-17.160156c0-5.519532 4.480469-10 10-10h17.160156c5.523438 0 10 4.480468 10 10zm0 0"/><path d="m410.738281 208.5v17.140625c0 5.519531-4.476562 10-10 10h-17.160156c-5.519531 0-10-4.480469-10-10v-17.140625c0-5.519531 4.480469-10 10-10h17.160156c5.523438 0 10 4.480469 10 10zm0 0"/><path d="m467.199219 92v17.140625c0 5.539063-4.480469 10-10 10h-17.140625c-5.519532 0-10-4.460937-10-10v-17.140625c0-5.519531 4.480468-10 10-10h17.140625c5.519531 0 10 4.480469 10 10zm0 0"/><path d="m467.199219 150.242188v17.160156c0 5.519531-4.480469 10-10 10h-17.140625c-5.519532 0-10-4.480469-10-10v-17.160156c0-5.519532 4.480468-10 10-10h17.140625c5.519531 0 10 4.480468 10 10zm0 0"/><path d="m467.199219 208.5v17.140625c0 5.519531-4.480469 10-10 10h-17.140625c-5.519532 0-10-4.480469-10-10v-17.140625c0-5.519531 4.480468-10 10-10h17.140625c5.519531 0 10 4.480469 10 10zm0 0"/></g><path d="m71.898438 92v4.140625c0 5.539063-4.476563 10-10 10h-17.136719c-5.523438 0-10-4.460937-10-10v-4.140625c0-5.519531 4.476562-10 10-10h17.136719c5.523437 0 10 4.480469 10 10zm0 0" fill="#fff"/><path d="m128.378906 92v4.140625c0 5.539063-4.480468 10-10 10h-17.160156c-5.519531 0-10-4.460937-10-10v-4.140625c0-5.519531 4.480469-10 10-10h17.160156c5.519532 0 10 4.480469 10 10zm0 0" fill="#fff"/><path d="m184.839844 92v4.140625c0 5.539063-4.480469 10-10 10h-17.140625c-5.519531 0-10-4.460937-10-10v-4.140625c0-5.519531 4.480469-10 10-10h17.140625c5.519531 0 10 4.480469 10 10zm0 0" fill="#fff"/><path d="m241.320312 92v4.140625c0 5.539063-4.480468 10-10 10h-17.140624c-5.539063 0-10-4.460937-10-10v-4.140625c0-5.519531 4.460937-10 10-10h17.140624c5.519532 0 10 4.480469 10 10zm0 0" fill="#fff"/><path d="m71.898438 33.601562v4.140626c0 5.539062-4.476563 10-10 10h-17.136719c-5.523438 0-10-4.460938-10-10v-4.140626c0-5.519531 4.476562-10 10-10h17.136719c5.523437 0 10 4.480469 10 10zm0 0" fill="#fff"/><path d="m128.378906 33.601562v4.140626c0 5.539062-4.480468 10-10 10h-17.160156c-5.519531 0-10-4.460938-10-10v-4.140626c0-5.519531 4.480469-10 10-10h17.160156c5.519532 0 10 4.480469 10 10zm0 0" fill="#fff"/><path d="m184.839844 33.601562v4.140626c0 5.539062-4.480469 10-10 10h-17.140625c-5.519531 0-10-4.460938-10-10v-4.140626c0-5.519531 4.480469-10 10-10h17.140625c5.519531 0 10 4.480469 10 10zm0 0" fill="#fff"/><path d="m241.320312 33.601562v4.140626c0 5.539062-4.480468 10-10 10h-17.140624c-5.539063 0-10-4.460938-10-10v-4.140626c0-5.519531 4.460937-10 10-10h17.140624c5.519532 0 10 4.480469 10 10zm0 0" fill="#fff"/><path d="m297.78125 33.601562v4.140626c0 5.539062-4.460938 10-10 10h-17.140625c-5.519531 0-10-4.460938-10-10v-4.140626c0-5.519531 4.480469-10 10-10h17.140625c5.539062 0 10 4.480469 10 10zm0 0" fill="#fff"/><path d="m354.261719 33.601562v4.140626c0 5.539062-4.480469 10-10 10h-17.140625c-5.519532 0-10-4.460938-10-10v-4.140626c0-5.519531 4.480468-10 10-10h17.140625c5.519531 0 10 4.480469 10 10zm0 0" fill="#fff"/><path d="m410.738281 33.601562v4.140626c0 5.539062-4.476562 10-10 10h-17.160156c-5.519531 0-10-4.460938-10-10v-4.140626c0-5.519531 4.480469-10 10-10h17.160156c5.523438 0 10 4.480469 10 10zm0 0" fill="#fff"/><path d="m410.738281 33.601562v4.140626c0 5.539062-4.476562 10-10 10h-17.160156c-5.519531 0-10-4.460938-10-10v-4.140626c0-5.519531 4.480469-10 10-10h17.160156c5.523438 0 10 4.480469 10 10zm0 0" fill="#fff"/><path d="m467.199219 33.601562v4.140626c0 5.539062-4.480469 10-10 10h-17.140625c-5.519532 0-10-4.460938-10-10v-4.140626c0-5.519531 4.480468-10 10-10h17.140625c5.519531 0 10 4.480469 10 10zm0 0" fill="#fff"/><path d="m71.898438 150.242188v4.160156c0 5.519531-4.476563 10-10 10h-17.136719c-5.523438 0-10-4.480469-10-10v-4.160156c0-5.519532 4.476562-10 10-10h17.136719c5.523437 0 10 4.480468 10 10zm0 0" fill="#fff"/><path d="m128.378906 150.242188v4.160156c0 5.519531-4.480468 10-10 10h-17.160156c-5.519531 0-10-4.480469-10-10v-4.160156c0-5.519532 4.480469-10 10-10h17.160156c5.519532 0 10 4.480468 10 10zm0 0" fill="#fff"/><path d="m184.839844 150.242188v4.160156c0 5.519531-4.480469 10-10 10h-17.140625c-5.519531 0-10-4.480469-10-10v-4.160156c0-5.519532 4.480469-10 10-10h17.140625c5.519531 0 10 4.480468 10 10zm0 0" fill="#fff"/><path d="m297.78125 92v62.402344c0 5.519531-4.460938 10-10 10h-73.601562c-5.539063 0-10-4.480469-10-10v-4.160156c0-5.519532 4.460937-10 10-10h36.460937c5.519531 0 10-4.460938 10-10v-38.242188c0-5.519531 4.480469-10 10-10h17.140625c5.539062 0 10 4.480469 10 10zm0 0" fill="#fff"/><path d="m354.261719 150.242188v4.160156c0 5.519531-4.480469 10-10 10h-17.140625c-5.519532 0-10-4.480469-10-10v-4.160156c0-5.519532 4.480468-10 10-10h17.140625c5.519531 0 10 4.480468 10 10zm0 0" fill="#fff"/><path d="m71.898438 208.5v4.140625c0 5.519531-4.476563 10-10 10h-17.136719c-5.523438 0-10-4.480469-10-10v-4.140625c0-5.519531 4.476562-10 10-10h17.136719c5.523437 0 10 4.480469 10 10zm0 0" fill="#fff"/><path d="m241.320312 208.5v4.140625c0 5.519531-4.480468 10-10 10h-130.101562c-5.519531 0-10-4.480469-10-10v-4.140625c0-5.519531 4.480469-10 10-10h130.101562c5.519532 0 10 4.480469 10 10zm0 0" fill="#fff"/><path d="m297.78125 208.5v4.140625c0 5.519531-4.460938 10-10 10h-17.140625c-5.519531 0-10-4.480469-10-10v-4.140625c0-5.519531 4.480469-10 10-10h17.140625c5.539062 0 10 4.480469 10 10zm0 0" fill="#fff"/><path d="m410.738281 92v4.140625c0 5.539063-4.476562 10-10 10h-73.617187c-5.519532 0-10-4.460937-10-10v-4.140625c0-5.519531 4.480468-10 10-10h73.617187c5.523438 0 10 4.480469 10 10zm0 0" fill="#fff"/><path d="m410.738281 150.242188v4.160156c0 5.519531-4.476562 10-10 10h-17.160156c-5.519531 0-10-4.480469-10-10v-4.160156c0-5.519532 4.480469-10 10-10h17.160156c5.523438 0 10 4.480468 10 10zm0 0" fill="#fff"/><path d="m410.738281 208.5v4.140625c0 5.519531-4.476562 10-10 10h-17.160156c-5.519531 0-10-4.480469-10-10v-4.140625c0-5.519531 4.480469-10 10-10h17.160156c5.523438 0 10 4.480469 10 10zm0 0" fill="#fff"/><path d="m467.199219 92v4.140625c0 5.539063-4.480469 10-10 10h-17.140625c-5.519532 0-10-4.460937-10-10v-4.140625c0-5.519531 4.480468-10 10-10h17.140625c5.519531 0 10 4.480469 10 10zm0 0" fill="#fff"/><path d="m467.199219 150.242188v4.160156c0 5.519531-4.480469 10-10 10h-17.140625c-5.519532 0-10-4.480469-10-10v-4.160156c0-5.519532 4.480468-10 10-10h17.140625c5.519531 0 10 4.480468 10 10zm0 0" fill="#fff"/><path d="m467.199219 208.5v4.140625c0 5.519531-4.480469 10-10 10h-17.140625c-5.519532 0-10-4.480469-10-10v-4.140625c0-5.519531 4.480468-10 10-10h17.140625c5.519531 0 10 4.480469 10 10zm0 0" fill="#fff"/><path d="m226.921875 357.660156c-20.621094 13.835938-39.964844 29.980469-61.601563 53.859375-1.859374 2.0625-2.859374 4.742188-2.859374 7.519531v43.441407c0 11.046875-8.953126 20-20 20h-84.039063c-11.050781 0-20-8.964844-20-20.011719 0-40.128906.976563-40.667969-3.042969-44.847656-14.699218-15.421875-23.738281-36.300782-23.738281-59.28125v-43.660156c0-5.519532 4.476563-10 10-10h109.71875c5.523437 0 10-4.476563 10-10v-85.835938c0-11.621094 9.101563-21.582031 20.714844-21.777344 11.820312-.203125 21.445312 9.335938 21.445312 21.074219 0 88.617187.019531 123.808594.019531 128.082031 5.902344-3.964844 12.148438-9.109375 22.980469-8.203125.039063 0 .082031 0 .101563.019531 12.269531 1.003907 17.96875 8.167969 23.058594 15.761719 3.058593 4.582031 1.839843 10.800781-2.757813 13.859375zm0 0" fill="#edaf85"/><path d="m226.921875 357.660156c-20.621094 13.835938-39.964844 29.980469-61.601563 53.859375-1.859374 2.0625-2.859374 4.742188-2.859374 7.519531v43.441407c0 11.046875-8.953126 20-20 20h-80.121094c-.601563-1.898438-.917969-3.898438-.917969-6 0-40.140625.976563-40.679688-3.042969-44.859375-14.699218-15.421875-23.738281-36.300782-23.738281-59.28125v-43.660156c0-5.519532 4.476563-10 10-10h109.71875c5.523437 0 10-4.476563 10-10v-86.539063c0-10.601563 7.839844-19.378906 18.019531-20.859375 1.570313 4.539062 1.160156-5.113281 1.160156 134.941406 5.902344-3.964844 12.148438-9.109375 22.980469-8.203125v.140625s.039063-.039062.101563-.121094c12.269531 1.003907 17.96875 8.167969 23.058594 15.761719 3.058593 4.582031 1.839843 10.800781-2.757813 13.859375zm0 0" fill="#f7c09a"/><path d="m275.085938 357.660156c20.617187 13.835938 39.960937 29.980469 61.597656 53.859375 1.859375 2.0625 2.859375 4.742188 2.859375 7.519531v43.441407c0 11.046875 8.953125 20 20 20h84.042969c11.046874 0 20-8.964844 20-20.011719 0-40.128906-.980469-40.667969 3.039062-44.847656 14.699219-15.421875 23.738281-36.300782 23.738281-59.28125v-43.660156c0-5.519532-4.476562-10-10-10h-109.71875c-5.523437 0-10-4.476563-10-10v-85.835938c0-11.621094-9.101562-21.582031-20.714843-21.777344-11.820313-.203125-21.445313 9.335938-21.445313 21.074219 0 88.617187-.019531 123.808594-.019531 128.082031-5.902344-3.964844-12.148438-9.109375-22.980469-8.203125-.039063 0-.082031 0-.101563.019531-12.269531 1.003907-17.96875 8.167969-23.058593 15.761719-3.058594 4.582031-1.839844 10.800781 2.761719 13.859375zm0 0" fill="#edaf85"/><path d="m275.085938 357.660156c20.617187 13.835938 39.960937 29.980469 61.597656 53.859375 1.859375 2.0625 2.859375 4.742188 2.859375 7.519531v43.441407c0 11.046875 8.953125 20 20 20h80.121093c.601563-1.898438.921876-3.898438.921876-6 0-40.140625-.980469-40.679688 3.039062-44.859375 14.699219-15.421875 23.738281-36.300782 23.738281-59.28125v-43.660156c0-5.519532-4.476562-10-10-10h-109.71875c-5.523437 0-10-4.476563-10-10v-86.539063c0-10.601563-7.839843-19.378906-18.019531-20.859375-1.570312 4.539062-1.160156-5.113281-1.160156 134.941406-5.902344-3.964844-12.148438-9.109375-22.980469-8.203125v.140625s-.039063-.039062-.101563-.121094c-12.269531 1.003907-17.96875 8.167969-23.058593 15.761719-3.058594 4.582031-1.839844 10.800781 2.761719 13.859375zm0 0" fill="#f7c09a"/><path d="m487.960938.480469h-473.960938c-7.71875 0-14 6.28125-14 14v230.28125c0 7.71875 6.28125 14 14 14h123.367188v41.914062h-115.726563c-7.71875 0-14 6.285157-14 14v43.660157c0 23.203124 8.828125 45.234374 24.851563 62.042968 2.601562 2.722656 1.929687 1.828125 1.929687 42.105469 0 13.234375 10.765625 24 24 24h84.03125c13.234375 0 24-10.765625 24-24 0-47.167969-.675781-45.503906 1.839844-48.28125 21.304687-23.527344 40.464843-39.585937 60.859375-53.210937 6.414062-4.292969 8.136718-13.003907 3.84375-19.417969l-2.429688-3.632813c-9.511718-14.207031-28.636718-18.21875-43.035156-9.195312 0-.816406-.003906-15.007813-.003906-69.984375h126.90625c0 41.53125-.007813 66.230469-.007813 69.980469-28.238281-17.699219-62.921875 18-39.917969 33.386718 20.515626 13.734375 39.867188 30.769532 59.15625 52.074219 2.492188 2.746094 1.84375.957031 1.84375 48.28125 0 13.234375 10.765626 24 24 24h84.03125c13.234376 0 24-10.765625 24-24 0-40.375-.648437-39.410156 1.925782-42.105469 16.027344-16.804687 24.855468-38.839844 24.855468-62.042968v-43.660157c0-7.714843-6.28125-14-14-14h-115.722656v-41.914062h123.363282c7.71875 0 14-6.28125 14-14v-230.28125c0-7.71875-6.28125-14-14-14zm-296.773438 335.425781c10.816406-7.226562 25.5-4.320312 32.734375 6.484375 11.601563 17.335937-4.828125 3.796875-61.558594 66.441406-5.164062 5.699219-3.914062 7.117188-3.914062 53.648438 0 8.824219-7.175781 16-16 16h-84.027344c-8.820313 0-16-7.175781-16-16 0-39.851563 1.21875-42.003907-4.136719-47.625-14.601562-15.308594-22.644531-35.378907-22.644531-56.519531v-43.660157c0-3.308593 2.691406-6 6-6h119.722656c2.207031 0 4-1.789062 4-4 0-104.753906-.59375-98.804687 1.480469-103.460937.476562-.515625.828125-1.152344.980469-1.867188 8.964843-14.847656 31.703125-8.386718 31.703125 8.789063 0 109.339843.003906 122.699219.003906 128.082031 0 3.203125 3.589844 5.09375 6.226562 3.320312zm-53.824219-104.265625h-36.144531c-3.308594 0-6-2.691406-6-6v-17.140625c0-3.308594 2.691406-6 6-6h36.808594c-.871094 3.773438-.664063 3.527344-.664063 29.140625zm49.503907-29.140625h44.453124c3.308594 0 6 2.691406 6 6v17.140625c0 3.308594-2.691406 6-6 6h-43.792968c0-25.453125.21875-25.324219-.660156-29.140625zm293.453124 106.175781c3.308594 0 6 2.691407 6 6v43.660157c0 21.136718-8.042968 41.210937-22.644531 56.519531-5.355469 5.613281-4.136719 7.738281-4.136719 47.628906 0 8.820313-7.175781 16-16 16h-84.027343c-8.824219 0-16-7.179687-16-16 0-47.023437 1.179687-48.03125-3.914063-53.652344-56.148437-61.996093-73.09375-49.195312-61.558594-66.441406 7.238282-10.804687 21.921876-13.714844 32.734376-6.484375 5.378906 3.601562 6.867187 5.253906 9.539062 3.839844 2.964844-1.585938 2.125 7.074218 2.125-131.609375 0-9.417969 7.660156-17.078125 17.082031-17.078125 9.417969 0 17.078125 7.660156 17.078125 17.078125v96.542969c0 2.207031 1.792969 4 4 4h119.722656zm13.640626-63.914062c0 3.308593-2.691407 6-6 6h-123.367188v-42.625c0-13.832031-11.25-25.082031-25.082031-25.082031-13.828125 0-25.078125 11.25-25.078125 25.082031v42.625h-126.90625v-11.121094h43.789062c7.722656 0 14-6.28125 14-14v-17.140625c0-7.71875-6.277344-14-14-14h-47.847656c-4.480469-6.878906-12.222656-11.445312-21.023438-11.445312-8.800781 0-16.542968 4.566406-21.019531 11.445312h-40.207031c-7.71875 0-14 6.28125-14 14v17.140625c0 7.71875 6.28125 14 14 14h36.144531v11.121094h-123.363281c-3.308594 0-6-2.691407-6-6v-230.28125c0-3.308594 2.691406-6 6-6h473.960938c3.308593 0 6 2.691406 6 6zm0 0" fill="#491352"/><path d="m61.902344 78.003906h-17.144532c-7.722656 0-14 6.28125-14 14v17.144532c0 7.71875 6.277344 14 14 14h17.144532c7.722656 0 14-6.28125 14-14v-17.144532c0-7.722656-6.277344-14-14-14zm6 31.144532c0 3.308593-2.691406 6-6 6h-17.144532c-3.308593 0-6-2.691407-6-6v-17.144532c0-3.308594 2.691407-6 6-6h17.144532c3.308594 0 6 2.691406 6 6zm0 0" fill="#491352"/><path d="m118.375 78.003906h-17.148438c-7.71875 0-14 6.28125-14 14v17.144532c0 7.71875 6.28125 14 14 14h17.148438c7.71875 0 14-6.28125 14-14v-17.144532c0-7.722656-6.28125-14-14-14zm6 31.144532c0 3.308593-2.691406 6-6 6h-17.148438c-3.304687 0-6-2.691407-6-6v-17.144532c0-3.308594 2.695313-6 6-6h17.148438c3.308594 0 6 2.691406 6 6zm0 0" fill="#491352"/><path d="m174.847656 78.003906h-17.148437c-7.71875 0-14 6.28125-14 14v17.144532c0 7.71875 6.28125 14 14 14h17.148437c7.71875 0 14-6.28125 14-14v-17.144532c0-7.722656-6.28125-14-14-14zm6 31.144532c0 3.308593-2.695312 6-6 6h-17.148437c-3.308594 0-6-2.691407-6-6v-17.144532c0-3.308594 2.691406-6 6-6h17.148437c3.304688 0 6 2.691406 6 6zm0 0" fill="#491352"/><path d="m214.171875 123.148438h17.144531c7.722656 0 14-6.28125 14-14v-17.144532c0-7.71875-6.277344-14-14-14h-17.144531c-7.722656 0-14 6.28125-14 14v17.144532c0 7.71875 6.277344 14 14 14zm-6-31.144532c0-3.308594 2.691406-6 6-6h17.144531c3.308594 0 6 2.691406 6 6v17.144532c0 3.308593-2.691406 6-6 6h-17.144531c-3.308594 0-6-2.691407-6-6zm0 0" fill="#491352"/><path d="m61.902344 19.601562h-17.144532c-7.722656 0-14 6.285157-14 14v17.148438c0 7.71875 6.277344 14 14 14h17.144532c7.722656 0 14-6.28125 14-14v-17.148438c0-7.71875-6.277344-14-14-14zm6 31.148438c0 3.308594-2.691406 6-6 6h-17.144532c-3.308593 0-6-2.691406-6-6v-17.148438c0-3.304687 2.691407-6 6-6h17.144532c3.308594 0 6 2.695313 6 6zm0 0" fill="#491352"/><path d="m118.375 19.601562h-17.148438c-7.71875 0-14 6.285157-14 14v17.148438c0 7.71875 6.28125 14 14 14h17.148438c7.71875 0 14-6.28125 14-14v-17.148438c0-7.71875-6.28125-14-14-14zm6 31.148438c0 3.308594-2.691406 6-6 6h-17.148438c-3.304687 0-6-2.691406-6-6v-17.148438c0-3.304687 2.695313-6 6-6h17.148438c3.308594 0 6 2.695313 6 6zm0 0" fill="#491352"/><path d="m174.847656 19.601562h-17.148437c-7.71875 0-14 6.285157-14 14v17.148438c0 7.71875 6.28125 14 14 14h17.148437c7.71875 0 14-6.28125 14-14v-17.148438c0-7.71875-6.28125-14-14-14zm6 31.148438c0 3.308594-2.695312 6-6 6h-17.148437c-3.308594 0-6-2.691406-6-6v-17.148438c0-3.304687 2.691406-6 6-6h17.148437c3.304688 0 6 2.695313 6 6zm0 0" fill="#491352"/><path d="m214.171875 64.75h17.144531c7.722656 0 14-6.28125 14-14v-17.148438c0-7.714843-6.277344-14-14-14h-17.144531c-7.722656 0-14 6.285157-14 14v17.148438c0 7.71875 6.277344 14 14 14zm-6-31.148438c0-3.304687 2.691406-6 6-6h17.144531c3.308594 0 6 2.695313 6 6v17.148438c0 3.308594-2.691406 6-6 6h-17.144531c-3.308594 0-6-2.691406-6-6zm0 0" fill="#491352"/><path d="m287.789062 19.601562h-17.148437c-7.714844 0-14 6.285157-14 14v17.148438c0 7.71875 6.285156 14 14 14h17.148437c7.71875 0 14-6.28125 14-14v-17.148438c0-7.71875-6.28125-14-14-14zm6 31.148438c0 3.308594-2.691406 6-6 6h-17.148437c-3.304687 0-6-2.691406-6-6v-17.148438c0-3.304687 2.695313-6 6-6h17.148437c3.308594 0 6 2.695313 6 6zm0 0" fill="#491352"/><path d="m327.113281 64.75h17.148438c7.714843 0 14-6.28125 14-14v-17.148438c0-7.714843-6.285157-14-14-14h-17.148438c-7.71875 0-14 6.285157-14 14v17.148438c0 7.71875 6.28125 14 14 14zm-6-31.148438c0-3.304687 2.691407-6 6-6h17.148438c3.304687 0 6 2.695313 6 6v17.148438c0 3.308594-2.695313 6-6 6h-17.148438c-3.308593 0-6-2.691406-6-6zm0 0" fill="#491352"/><path d="m400.730469 19.601562h-17.144531c-7.71875 0-14 6.285157-14 14v17.148438c0 7.71875 6.28125 14 14 14h17.144531c7.71875 0 14-6.28125 14-14v-17.148438c0-7.71875-6.28125-14-14-14zm6 31.148438c0 3.308594-2.691407 6-6 6h-17.144531c-3.308594 0-6-2.691406-6-6v-17.148438c0-3.304687 2.691406-6 6-6h17.144531c3.308593 0 6 2.695313 6 6zm0 0" fill="#491352"/><path d="m457.203125 19.601562h-17.148437c-7.714844 0-14 6.285157-14 14v17.148438c0 7.71875 6.285156 14 14 14h17.148437c7.71875 0 14-6.28125 14-14v-17.148438c0-7.71875-6.277344-14-14-14zm6 31.148438c0 3.308594-2.691406 6-6 6h-17.148437c-3.308594 0-6-2.691406-6-6v-17.148438c0-3.304687 2.691406-6 6-6h17.148437c3.308594 0 6 2.695313 6 6zm0 0" fill="#491352"/><path d="m61.902344 136.25h-17.144532c-7.722656 0-14 6.28125-14 14v17.148438c0 7.714843 6.277344 14 14 14h17.144532c7.722656 0 14-6.285157 14-14v-17.148438c0-7.71875-6.277344-14-14-14zm6 31.148438c0 3.304687-2.691406 6-6 6h-17.144532c-3.308593 0-6-2.695313-6-6v-17.148438c0-3.308594 2.691407-6 6-6h17.144532c3.308594 0 6 2.691406 6 6zm0 0" fill="#491352"/><path d="m118.375 136.25h-17.148438c-7.71875 0-14 6.28125-14 14v17.148438c0 7.714843 6.28125 14 14 14h17.148438c7.71875 0 14-6.285157 14-14v-17.148438c0-7.71875-6.28125-14-14-14zm6 31.148438c0 3.304687-2.691406 6-6 6h-17.148438c-3.304687 0-6-2.695313-6-6v-17.148438c0-3.308594 2.695313-6 6-6h17.148438c3.308594 0 6 2.691406 6 6zm0 0" fill="#491352"/><path d="m174.847656 136.25h-17.148437c-7.71875 0-14 6.28125-14 14v17.148438c0 7.714843 6.28125 14 14 14h17.148437c7.71875 0 14-6.285157 14-14v-17.148438c0-7.71875-6.28125-14-14-14zm6 31.148438c0 3.304687-2.695312 6-6 6h-17.148437c-3.308594 0-6-2.695313-6-6v-17.148438c0-3.308594 2.691406-6 6-6h17.148437c3.304688 0 6 2.691406 6 6zm0 0" fill="#491352"/><path d="m287.789062 78.003906h-17.148437c-7.714844 0-14 6.28125-14 14v38.246094c0 3.308594-2.691406 6-6 6h-36.46875c-7.722656 0-14 6.28125-14 14v17.148438c0 7.714843 6.277344 14 14 14h73.617187c7.71875 0 14-6.285157 14-14v-75.394532c0-7.722656-6.28125-14-14-14zm6 89.394532c0 3.304687-2.691406 6-6 6h-73.617187c-3.308594 0-6-2.695313-6-6v-17.148438c0-3.308594 2.691406-6 6-6h36.46875c7.71875 0 14-6.28125 14-14v-38.246094c0-3.308594 2.695313-6 6-6h17.148437c3.308594 0 6 2.691406 6 6zm0 0" fill="#491352"/><path d="m344.261719 136.25h-17.148438c-7.71875 0-14 6.28125-14 14v17.148438c0 7.714843 6.28125 14 14 14h17.148438c7.71875 0 14-6.285157 14-14v-17.148438c0-7.71875-6.28125-14-14-14zm6 31.148438c0 3.304687-2.691407 6-6 6h-17.148438c-3.308593 0-6-2.695313-6-6v-17.148438c0-3.308594 2.691407-6 6-6h17.148438c3.308593 0 6 2.691406 6 6zm0 0" fill="#491352"/><path d="m61.902344 194.5h-17.144532c-7.722656 0-14 6.28125-14 14v17.144531c0 7.71875 6.277344 14 14 14h17.144532c7.722656 0 14-6.28125 14-14v-17.144531c0-7.722656-6.277344-14-14-14zm6 31.144531c0 3.308594-2.691406 6-6 6h-17.144532c-3.308593 0-6-2.691406-6-6v-17.144531c0-3.308594 2.691407-6 6-6h17.144532c3.308594 0 6 2.691406 6 6zm0 0" fill="#491352"/><path d="m287.789062 194.5h-17.148437c-7.714844 0-14 6.28125-14 14v17.144531c0 7.71875 6.285156 14 14 14h17.148437c7.71875 0 14-6.28125 14-14v-17.144531c0-7.722656-6.28125-14-14-14zm6 31.144531c0 3.308594-2.691406 6-6 6h-17.148437c-3.304687 0-6-2.691406-6-6v-17.144531c0-3.308594 2.695313-6 6-6h17.148437c3.308594 0 6 2.691406 6 6zm0 0" fill="#491352"/><path d="m400.730469 78.003906h-73.617188c-7.71875 0-14 6.28125-14 14v17.144532c0 7.71875 6.28125 14 14 14h73.617188c7.71875 0 14-6.28125 14-14v-17.144532c0-7.722656-6.28125-14-14-14zm6 31.144532c0 3.308593-2.691407 6-6 6h-73.617188c-3.308593 0-6-2.691407-6-6v-17.144532c0-3.308594 2.691407-6 6-6h73.617188c3.308593 0 6 2.691406 6 6zm0 0" fill="#491352"/><path d="m400.730469 136.25h-17.144531c-7.71875 0-14 6.28125-14 14v17.148438c0 7.714843 6.28125 14 14 14h17.144531c7.71875 0 14-6.285157 14-14v-17.148438c0-7.71875-6.28125-14-14-14zm6 31.148438c0 3.304687-2.691407 6-6 6h-17.144531c-3.308594 0-6-2.695313-6-6v-17.148438c0-3.308594 2.691406-6 6-6h17.144531c3.308593 0 6 2.691406 6 6zm0 0" fill="#491352"/><path d="m400.730469 194.5h-17.144531c-7.71875 0-14 6.28125-14 14v17.144531c0 7.71875 6.28125 14 14 14h17.144531c7.71875 0 14-6.28125 14-14v-17.144531c0-7.722656-6.28125-14-14-14zm6 31.144531c0 3.308594-2.691407 6-6 6h-17.144531c-3.308594 0-6-2.691406-6-6v-17.144531c0-3.308594 2.691406-6 6-6h17.144531c3.308593 0 6 2.691406 6 6zm0 0" fill="#491352"/><path d="m457.203125 78.003906h-17.148437c-7.714844 0-14 6.28125-14 14v17.144532c0 7.71875 6.285156 14 14 14h17.148437c7.71875 0 14-6.28125 14-14v-17.144532c0-7.722656-6.277344-14-14-14zm6 31.144532c0 3.308593-2.691406 6-6 6h-17.148437c-3.308594 0-6-2.691407-6-6v-17.144532c0-3.308594 2.691406-6 6-6h17.148437c3.308594 0 6 2.691406 6 6zm0 0" fill="#491352"/><path d="m457.203125 136.25h-17.148437c-7.714844 0-14 6.28125-14 14v17.148438c0 7.714843 6.285156 14 14 14h17.148437c7.71875 0 14-6.285157 14-14v-17.148438c0-7.71875-6.277344-14-14-14zm6 31.148438c0 3.304687-2.691406 6-6 6h-17.148437c-3.308594 0-6-2.695313-6-6v-17.148438c0-3.308594 2.691406-6 6-6h17.148437c3.308594 0 6 2.691406 6 6zm0 0" fill="#491352"/><path d="m457.203125 194.5h-17.148437c-7.714844 0-14 6.28125-14 14v17.144531c0 7.71875 6.285156 14 14 14h17.148437c7.71875 0 14-6.28125 14-14v-17.144531c0-7.722656-6.277344-14-14-14zm6 31.144531c0 3.308594-2.691406 6-6 6h-17.148437c-3.308594 0-6-2.691406-6-6v-17.144531c0-3.308594 2.691406-6 6-6h17.148437c3.308594 0 6 2.691406 6 6zm0 0" fill="#491352"/></svg>