<svg height="491pt" viewBox="-7 0 491 491.342" width="491pt" xmlns="http://www.w3.org/2000/svg"><path d="m463.761719 379.664062h-411.828125c-5.523438 0-10-4.476562-10-10v-355.671874c0-5.523438 4.476562-10 10-10h411.832031c5.519531 0 10 4.476562 10 10v355.671874c-.003906 5.527344-4.480469 10-10.003906 10zm0 0" fill="#f85252"/><path d="m473.757812 65.5v304.539062c0 5.320313-4.300781 9.621094-9.640624 9.621094h-412.558594c-5.320313 0-9.621094-4.300781-9.621094-9.621094v-356.417968c0-5.320313 4.300781-9.621094 9.621094-9.621094h103.917968l43.722657 54.300781c3.660156 4.558594 9.179687 7.199219 15.019531 7.199219zm0 0" fill="#d8d6d7"/><path d="m473.757812 65.5v304.539062c0 5.320313-4.300781 9.621094-9.640624 9.621094h-392.21875v-375.660156h83.578124l43.722657 54.300781c3.660156 4.558594 9.179687 7.199219 15.019531 7.199219zm0 0" fill="#fff"/><path d="m405.125 35.28125c0 6.660156-5.398438 12.058594-12.058594 12.058594s-12.058594-5.398438-12.058594-12.058594 5.398438-12.058594 12.058594-12.058594 12.058594 5.398438 12.058594 12.058594zm0 0" fill="#fff"/><path d="m449.253906 35.28125c0 6.660156-5.398437 12.058594-12.058594 12.058594-6.660156 0-12.058593-5.398438-12.058593-12.058594s5.398437-12.058594 12.058593-12.058594c6.660157 0 12.058594 5.398438 12.058594 12.058594zm0 0" fill="#fff"/><path d="m196.335938 330.558594-149.417969 149.441406c-6.558594 6.558594-15.839844 8.699219-24.199219 6.480469-4.101562-1.101563-8-3.28125-11.242188-6.5-9.757812-9.761719-9.777343-25.621094 0-35.402344l149.421876-149.417969c4.660156 6.820313 10 13.300782 16.058593 19.359375 6.0625 6.058594 12.5625 11.421875 19.378907 16.039063zm0 0" fill="#d73735"/><path d="m196.335938 330.558594-149.417969 149.441406c-6.558594 6.558594-15.839844 8.699219-24.199219 6.480469-2.261719-8.339844-.082031-17.640625 6.480469-24.199219l147.757812-147.761719c6.0625 6.058594 12.5625 11.421875 19.378907 16.039063zm0 0" fill="#f85252"/><path d="m367.277344 124.199219c-52.558594-52.558594-137.757813-52.558594-190.320313 0-52.539062 52.5625-52.539062 137.761719 0 190.320312 52.5625 52.539063 137.761719 52.539063 190.320313 0 52.558594-52.5625 52.558594-137.757812 0-190.320312zm-23.441406 166.859375c-39.617188 39.621094-103.816407 39.621094-143.417969 0-39.601563-39.601563-39.601563-103.800782 0-143.402344 39.601562-39.617188 103.800781-39.617188 143.417969 0 39.601562 39.605469 39.601562 103.800781 0 143.402344zm0 0" fill="#40c4df"/><path d="m186.238281 322.960938c-3.195312-2.628907-6.292969-5.441407-9.289062-8.441407-52.554688-52.550781-52.554688-137.773437 0-190.324219 52.550781-52.550781 137.769531-52.550781 190.324219 0 2.996093 3 5.808593 6.097657 8.441406 9.292969-52.863282-43.953125-131.480469-41.140625-181.050782 8.425781-49.5625 49.570313-52.378906 128.1875-8.425781 181.046876zm0 0" fill="#1c868e"/><g fill="#491352"><path d="m272.15625 285.519531c16.160156 0 20.382812-12.898437 20.382812-29.960937 0-16.820313-4.222656-29.636719-20.382812-29.636719-16.238281 0-20.457031 12.816406-20.457031 29.636719 0 17.0625 4.21875 29.960937 20.457031 29.960937zm0-52.859375c11.542969 0 13.082031 10.71875 13.082031 22.898438 0 12.660156-1.539062 23.222656-13.082031 23.222656-11.597656 0-13.160156-10.5625-13.160156-23.222656 0-12.179688 1.5625-22.898438 13.160156-22.898438zm0 0"/><path d="m308.636719 216.261719c16.160156 0 20.382812-12.902344 20.382812-29.960938 0-16.820312-4.222656-29.640625-20.382812-29.640625-16.238281 0-20.457031 12.820313-20.457031 29.640625 0 17.058594 4.21875 29.960938 20.457031 29.960938zm0-52.863281c11.542969 0 13.082031 10.722656 13.082031 22.902343 0 12.660157-1.539062 23.21875-13.082031 23.21875-11.597657 0-13.160157-10.558593-13.160157-23.21875 0-12.179687 1.5625-22.902343 13.160157-22.902343zm0 0"/><path d="m217.417969 233.101562h7.800781v51.976563h7.480469v-58.71875h-15.28125zm0 0"/><path d="m303.835938 233.101562h7.78125v51.976563h7.480468v-58.71875h-15.261718zm0 0"/><path d="m463.757812 0h-412.199218c-7.511719 0-13.621094 6.109375-13.621094 13.621094v356.417968c0 7.511719 6.109375 13.621094 13.621094 13.621094h15.1875l-58.101563 58.09375c-11.296875 11.324219-11.296875 29.75.003907 41.074219 11.347656 11.351563 29.726562 11.355469 41.074218 0l99.171875-99.167969h315.222657c7.519531 0 13.640624-6.109375 13.640624-13.621094v-356.039062c0-7.71875-6.28125-14-14-14zm-419.6875 477.171875c-8.222656 8.222656-21.539062 8.226563-29.761718.003906-8.1875-8.210937-8.1875-21.5625 0-29.769531l146.082031-146.0625c4.144531 5.648438 8.753906 11.019531 13.742187 16.003906 5.007813 5.011719 10.382813 9.621094 16.015626 13.746094zm135.714844-350.144531c50.914063-50.910156 133.753906-50.910156 184.664063 0 50.914062 50.914062 50.914062 133.75 0 184.664062-44.378907 44.359375-114.132813 50.90625-165.855469 15.566406-.003906 0-.007812 0-.011719-.003906 0 0 0 0-.003906-.003906-6.660156-4.511719-12.980469-9.746094-18.792969-15.558594-5.777344-5.777344-11.011718-12.09375-15.558594-18.78125 0 0-.003906 0-.003906-.003906 0 0 0 0-.003906 0-35.34375-51.734375-28.796875-121.496094 15.566406-165.878906zm289.972656 242.632812c0 3.308594-2.691406 6-6 6h-306.863281l39.972657-39.972656c54.902343 35.613281 127.15625 27.722656 173.238281-18.339844 54.03125-54.03125 54.03125-141.945312 0-195.976562s-141.945313-54.03125-195.976563 0c-46.292968 46.3125-53.75 118.648437-18.332031 173.253906l-81.046875 81.035156h-22.8125c-3.308594 0-6-2.691406-6-6v-355.660156c0-3.308594 2.691406-6 6-6h101.625l42.515625 52.804688c4.4375 5.523437 11.046875 8.695312 18.136719 8.695312h255.542968zm0-308.160156h-255.539062c-4.65625 0-8.992188-2.078125-11.90625-5.707031l-38.480469-47.792969h299.925781c3.308594 0 6 2.691406 6 6zm0 0"/><path d="m393.066406 19.222656c-8.855468 0-16.058594 7.207032-16.058594 16.058594s7.207032 16.058594 16.058594 16.058594c8.851563 0 16.054688-7.207032 16.054688-16.058594s-7.203125-16.058594-16.054688-16.058594zm0 24.117188c-4.441406 0-8.058594-3.617188-8.058594-8.058594s3.617188-8.058594 8.058594-8.058594 8.054688 3.617188 8.054688 8.058594-3.613282 8.058594-8.054688 8.058594zm0 0"/><path d="m437.195312 19.222656c-8.855468 0-16.058593 7.207032-16.058593 16.058594s7.203125 16.058594 16.058593 16.058594c8.855469 0 16.054688-7.207032 16.054688-16.058594s-7.199219-16.058594-16.054688-16.058594zm0 24.117188c-4.445312 0-8.058593-3.617188-8.058593-8.058594s3.613281-8.058594 8.058593-8.058594c4.441407 0 8.054688 3.617188 8.054688 8.058594s-3.613281 8.058594-8.054688 8.058594zm0 0"/><path d="m346.660156 293.894531c41.097656-41.097656 41.097656-107.972656 0-149.074219-41.097656-41.097656-107.972656-41.097656-149.074218 0-41.101563 41.101563-41.101563 107.976563 0 149.074219 41.101562 41.097657 107.972656 41.101563 149.074218 0zm-143.417968-143.417969c37.980468-37.980468 99.78125-37.980468 137.757812 0 37.980469 37.980469 37.980469 99.78125 0 137.761719-37.976562 37.980469-99.777344 37.980469-137.757812 0-37.980469-37.980469-37.980469-99.78125 0-137.761719zm0 0"/><path d="m230.578125 216.261719c16.160156 0 20.378906-12.902344 20.378906-29.960938 0-16.820312-4.21875-29.640625-20.378906-29.640625-16.242187 0-20.460937 12.820313-20.460937 29.640625 0 17.058594 4.21875 29.960938 20.460937 29.960938zm0-52.863281c11.539063 0 13.078125 10.722656 13.078125 22.902343 0 12.660157-1.539062 23.21875-13.078125 23.21875-11.601563 0-13.160156-10.558593-13.160156-23.21875 0-12.179687 1.558593-22.902343 13.160156-22.902343zm0 0"/><path d="m266.957031 216.261719h7.480469v-58.703125h-15.257812v6.742187h7.777343zm0 0"/><path d="m136.792969 33.308594h-52.390625c-2.207032 0-4 1.792968-4 4 0 2.210937 1.792968 4 4 4h52.390625c2.207031 0 4-1.789063 4-4 0-2.207032-1.792969-4-4-4zm0 0"/></g></svg>