<?xml version="1.0" encoding="iso-8859-1"?>
<!-- Generator: Adobe Illustrator 19.0.0, SVG Export Plug-In . SVG Version: 6.00 Build 0)  -->
<svg version="1.1" id="Layer_1" xmlns="http://www.w3.org/2000/svg" xmlns:xlink="http://www.w3.org/1999/xlink" x="0px" y="0px"
	 viewBox="0 0 512 512" style="enable-background:new 0 0 512 512;" xml:space="preserve">
<circle style="fill:#FFE356;" cx="256" cy="256" r="256"/>
<path style="fill:#FEFEFE;" d="M150.176,47.996c-3.988,2.338-10.589,8.114-13.684,10.933c32.456-15.196,64.223,28.88,84.99,57.141
	c4.401,5.982,8.389,11.827,11.896,17.259c6.876-1.031,14.027-2.407,21.591-4.194C265.008,124.321,202.022,18.016,150.176,47.996z"/>
<path style="fill:#E4E7ED;" d="M136.492,58.929c-29.293,32.662-1.513,89.39,96.885,74.4c-3.507-5.363-7.495-11.208-11.896-17.259
	c-0.344-0.481-0.756-0.963-1.1-1.513C169.223,115.52,137.661,93.31,136.492,58.929z"/>
<path style="fill:#FEFEFE;" d="M361.824,47.996c3.988,2.338,10.589,8.114,13.684,10.933c-32.456-15.196-64.223,28.88-84.99,57.141
	c-4.401,5.982-8.389,11.827-11.896,17.259c-6.876-1.031-14.027-2.407-21.591-4.194C246.992,124.321,309.978,18.016,361.824,47.996z"
	/>
<path style="fill:#E4E7ED;" d="M375.508,58.929c29.292,32.662,1.513,89.39-96.885,74.4c3.507-5.363,7.495-11.208,11.896-17.259
	c0.344-0.481,0.756-0.963,1.1-1.513C342.777,115.52,374.339,93.31,375.508,58.929z"/>
<path style="fill:#F7635B;" d="M92.278,128.172h318.573c9.558,0,17.328,7.839,17.328,17.328v306.334
	c0,9.558-7.839,17.328-17.328,17.328H92.278c-9.558,0-17.328-7.839-17.328-17.328V145.5
	C74.95,135.942,82.789,128.172,92.278,128.172z"/>
<path style="fill:#FF7069;" d="M91.041,140.343h321.049c8.87,0,16.09,7.22,16.09,16.09v284.536c0,8.87-7.22,16.09-16.09,16.09
	H91.041c-8.87,0-16.09-7.22-16.09-16.09V156.433C74.95,147.563,82.17,140.343,91.041,140.343z"/>
<polygon style="fill:#F7635B;" points="435.812,189.507 426.873,225.745 74.263,224.095 71.375,189.507 "/>
<path style="fill:#FF7069;" d="M69.106,125.696h373.789c2.2,0,4.057,1.857,4.057,4.057v71.512c0,2.2-1.857,4.057-4.057,4.057H69.106
	c-2.2,0-4.057-1.857-4.057-4.057v-71.512C65.049,127.553,66.905,125.696,69.106,125.696z"/>
<polygon style="fill:#FEFEFE;" points="215.087,125.696 286.599,125.696 286.599,469.23 215.087,469.23 "/>
<g>
	<polygon style="fill:#E4E7ED;" points="286.599,457.128 286.599,469.368 215.087,469.23 215.087,457.128 	"/>
	<polygon style="fill:#E4E7ED;" points="286.599,205.735 286.599,224.988 215.087,224.782 215.087,205.735 	"/>
</g>
<g>
</g>
<g>
</g>
<g>
</g>
<g>
</g>
<g>
</g>
<g>
</g>
<g>
</g>
<g>
</g>
<g>
</g>
<g>
</g>
<g>
</g>
<g>
</g>
<g>
</g>
<g>
</g>
<g>
</g>
</svg>
